<?xml version="1.0" encoding="UTF-8"?>
<svg xmlns="http://www.w3.org/2000/svg" xmlns:xlink="http://www.w3.org/1999/xlink" width="80px" height="80px" viewBox="0 0 80 80" version="1.1">
<g id="surface1">
<path style="fill-rule:nonzero;fill:rgb(100%,100%,100%);fill-opacity:1;stroke-width:1;stroke-linecap:butt;stroke-linejoin:miter;stroke:rgb(100%,100%,100%);stroke-opacity:1;stroke-miterlimit:4;" d="M 255.194549 102.304907 C 254.592074 90.97374 243.029187 92.897026 231.744365 92.897026 C 240.086328 95.12155 247.964848 98.226614 255.194549 102.304907 Z M 255.194549 102.304907 " transform="matrix(0.168575,0,0,0.168575,0,0)"/>
<path style="fill-rule:nonzero;fill:rgb(100%,100%,100%);fill-opacity:1;stroke-width:1;stroke-linecap:butt;stroke-linejoin:miter;stroke:rgb(100%,100%,100%);stroke-opacity:1;stroke-miterlimit:4;" d="M 134.514152 73.91906 C 90.695675 73.91906 70.535931 129.393114 105.572175 157.292346 C 117.505817 125.407509 141.280411 102.513456 172.446912 93.476329 C 163.919572 81.68172 150.155333 73.91906 134.514152 73.91906 Z M 134.514152 73.91906 " transform="matrix(0.168575,0,0,0.168575,0,0)"/>
<path style="fill-rule:nonzero;fill:rgb(100%,100%,100%);fill-opacity:1;stroke-width:1;stroke-linecap:butt;stroke-linejoin:miter;stroke:rgb(100%,100%,100%);stroke-opacity:1;stroke-miterlimit:4;" d="M 43.980682 148.625973 C 45.764936 154.349486 48.082147 159.841279 50.83963 165.055005 L 36.449744 179.468064 C 32.58 183.314635 32.58 189.59428 36.449744 193.464024 L 61.823214 218.860666 C 63.653812 220.714436 66.202745 221.734009 68.844366 221.734009 C 71.439644 221.734009 73.965405 220.714436 75.842346 218.860666 L 90.20906 204.447608 C 92.387239 205.606214 94.773968 206.301378 96.998491 207.274607 C 96.998491 207.112402 96.998491 206.950197 96.998491 206.787992 C 96.998491 195.016556 98.342474 183.917111 100.752375 173.489657 C 83.396457 162.297523 71.810398 142.902459 71.810398 120.773086 C 71.810398 86.177112 99.94135 58.022987 134.514152 58.022987 C 157.941165 58.022987 178.170425 71.06889 188.94546 90.116372 C 200.485176 88.6797 211.306556 88.6797 224.329287 91.135945 C 222.660894 86.084423 220.691264 81.102417 218.211847 76.467994 L 232.601733 62.054935 C 234.478675 60.201166 235.52142 57.675405 235.52142 55.033783 C 235.52142 52.415334 234.478675 49.889573 232.601733 48.035803 L 207.251435 22.685505 C 205.304977 20.739047 202.779216 19.765818 200.253455 19.765818 C 197.704522 19.765818 195.178761 20.739047 193.255475 22.685505 L 178.819244 37.075391 C 173.605517 34.317909 168.113725 32.000697 162.36704 30.262788 L 162.36704 9.894495 C 162.36704 4.425875 157.964337 0 152.472545 0 L 116.578932 0 C 111.133484 0 106.684437 4.425875 106.684437 9.894495 L 106.684437 30.262788 C 100.937751 32.000697 95.469131 34.317909 90.232232 37.075391 L 75.842346 22.685505 C 73.895888 20.739047 71.370127 19.78899 68.844366 19.78899 C 66.295433 19.78899 63.7465 20.739047 61.823214 22.685505 L 36.449744 48.058975 C 34.595974 49.912745 33.553229 52.438506 33.553229 55.056955 C 33.553229 57.698577 34.595974 60.201166 36.449744 62.054935 L 50.83963 76.467994 C 48.082147 81.68172 45.764936 87.173513 44.027027 92.897026 L 23.681906 92.897026 C 18.190114 92.897026 13.764239 97.346073 13.764239 102.814693 L 13.764239 138.708306 C 13.764239 144.176926 18.190114 148.625973 23.681906 148.625973 Z M 43.980682 148.625973 " transform="matrix(0.168575,0,0,0.168575,0,0)"/>
<path style="fill-rule:nonzero;fill:rgb(100%,100%,100%);fill-opacity:1;stroke-width:1;stroke-linecap:butt;stroke-linejoin:miter;stroke:rgb(100%,100%,100%);stroke-opacity:1;stroke-miterlimit:4;" d="M 354.881006 340.653325 C 370.753908 331.940608 381.644804 315.279855 381.644804 295.954307 C 381.644804 267.730666 358.681234 244.790268 330.457593 244.790268 C 320.539926 244.790268 311.340594 247.756299 303.485246 252.645616 C 298.781306 271.391861 291.366228 289.303909 281.680282 304.852401 C 309.162415 310.019784 334.350509 322.532728 354.881006 340.653325 Z M 354.881006 340.653325 " transform="matrix(0.168575,0,0,0.168575,0,0)"/>
<path style="fill-rule:nonzero;fill:rgb(100%,100%,100%);fill-opacity:1;stroke-width:1;stroke-linecap:butt;stroke-linejoin:miter;stroke:rgb(100%,100%,100%);stroke-opacity:1;stroke-miterlimit:4;" d="M 460.777591 276.582415 C 460.777591 270.673525 455.980963 265.900069 450.095245 265.900069 L 428.151248 265.900069 C 426.251134 259.713113 423.725373 253.78105 420.736169 248.150225 L 436.284661 232.601733 C 438.300636 230.585759 439.43607 227.874621 439.43607 225.047622 C 439.43607 222.220624 438.300636 219.486314 436.284661 217.493511 L 408.918389 190.104066 C 406.85607 188.018576 404.098588 186.97583 401.364278 186.97583 C 398.629968 186.97583 395.895658 188.018576 393.810167 190.104066 L 378.238503 205.652558 C 372.63085 202.686527 366.698787 200.183938 360.488659 198.283825 L 360.488659 176.339828 C 360.488659 170.430937 355.715203 165.657481 349.829484 165.657481 L 311.108873 165.657481 C 308.513596 165.657481 306.242728 166.700226 304.365786 168.229586 C 307.633055 180.116883 309.417308 193.023753 309.417308 206.787992 C 309.417308 215.523881 308.745317 224.375631 307.47085 233.204208 C 314.67738 230.539415 322.347351 228.871022 330.457593 228.871022 C 367.440295 228.871022 397.540878 258.971605 397.540878 295.954307 C 397.540878 319.589869 385.190138 340.305743 366.675615 352.262557 C 380.161789 367.046369 390.867308 384.587663 397.842116 404.23762 C 399.000722 404.631547 400.1825 404.909612 401.38745 404.909612 C 404.12176 404.909612 406.85607 403.866867 408.941561 401.781376 L 436.331006 374.415103 C 438.323808 372.399129 439.43607 369.687991 439.43607 366.860992 C 439.43607 364.033994 438.323808 361.299683 436.331006 359.283709 L 420.759342 343.735217 C 423.725373 338.127564 426.251134 332.195502 428.151248 325.985374 L 450.095245 325.985374 C 452.922243 325.985374 455.679725 324.873112 457.672528 322.857138 C 459.66533 320.864335 460.800764 318.130025 460.800764 315.303027 Z M 460.777591 276.582415 " transform="matrix(0.168575,0,0,0.168575,0,0)"/>
<path style="fill-rule:nonzero;fill:rgb(100%,100%,100%);fill-opacity:1;stroke-width:1;stroke-linecap:butt;stroke-linejoin:miter;stroke:rgb(100%,100%,100%);stroke-opacity:1;stroke-miterlimit:4;" d="M 376.037151 413.900394 C 359.445914 365.053567 315.55792 331.453994 264.926839 326.889086 C 247.964848 344.847479 226.970908 356.248162 203.196314 356.248162 C 179.444892 356.248162 158.427779 344.847479 141.48896 326.889086 C 90.811535 331.453994 46.946714 365.053567 30.332304 413.923566 L 21.156145 440.919085 C 18.537695 448.704917 19.78899 457.255429 24.585619 463.929 C 29.359075 470.60257 37.052219 474.565002 45.255149 474.565002 L 361.114307 474.565002 C 369.317237 474.565002 377.033552 470.60257 381.807009 463.929 C 386.580466 457.255429 387.854932 448.704917 385.213311 440.919085 Z M 376.037151 413.900394 " transform="matrix(0.168575,0,0,0.168575,0,0)"/>
<path style="fill-rule:nonzero;fill:rgb(100%,100%,100%);fill-opacity:1;stroke-width:1;stroke-linecap:butt;stroke-linejoin:miter;stroke:rgb(100%,100%,100%);stroke-opacity:1;stroke-miterlimit:4;" d="M 120.842602 206.787992 C 120.842602 267.359912 157.732616 332.380879 203.196314 332.380879 C 248.683184 332.380879 285.573198 267.359912 285.573198 206.787992 C 285.573198 81.195106 120.842602 80.940213 120.842602 206.787992 Z M 120.842602 206.787992 " transform="matrix(0.168575,0,0,0.168575,0,0)"/>
</g>
</svg>
